<mxfile host="app.diagrams.net" agent="Mozilla/5.0 (X11; Linux x86_64) AppleWebKit/537.36 (KHTML, like Gecko) Chrome/127.0.0.0 Safari/537.36" version="24.7.7">
  <diagram name="Page-1" id="ekBFT00ACfX_deMmtiOu">
    <mxGraphModel dx="1938" dy="578" grid="1" gridSize="10" guides="1" tooltips="1" connect="1" arrows="1" fold="1" page="1" pageScale="1" pageWidth="827" pageHeight="1169" math="0" shadow="0">
      <root>
        <mxCell id="0" />
        <mxCell id="1" parent="0" />
        <mxCell id="ED_jTnRFuxciTTokr7V6-10" style="edgeStyle=orthogonalEdgeStyle;rounded=0;orthogonalLoop=1;jettySize=auto;html=1;entryX=0;entryY=0.5;entryDx=0;entryDy=0;" edge="1" parent="1" source="ED_jTnRFuxciTTokr7V6-1" target="ED_jTnRFuxciTTokr7V6-2">
          <mxGeometry relative="1" as="geometry" />
        </mxCell>
        <mxCell id="ED_jTnRFuxciTTokr7V6-1" value="VSCode&lt;div&gt;1.92&lt;/div&gt;" style="rounded=0;whiteSpace=wrap;html=1;" vertex="1" parent="1">
          <mxGeometry x="224" y="110" width="120" height="60" as="geometry" />
        </mxCell>
        <mxCell id="ED_jTnRFuxciTTokr7V6-11" style="edgeStyle=orthogonalEdgeStyle;rounded=0;orthogonalLoop=1;jettySize=auto;html=1;entryX=0.5;entryY=0;entryDx=0;entryDy=0;" edge="1" parent="1" source="ED_jTnRFuxciTTokr7V6-2" target="ED_jTnRFuxciTTokr7V6-5">
          <mxGeometry relative="1" as="geometry" />
        </mxCell>
        <mxCell id="ED_jTnRFuxciTTokr7V6-14" style="edgeStyle=orthogonalEdgeStyle;rounded=0;orthogonalLoop=1;jettySize=auto;html=1;entryX=0.5;entryY=0;entryDx=0;entryDy=0;exitX=0.5;exitY=0;exitDx=0;exitDy=0;" edge="1" parent="1" source="ED_jTnRFuxciTTokr7V6-2" target="ED_jTnRFuxciTTokr7V6-1">
          <mxGeometry relative="1" as="geometry">
            <Array as="points">
              <mxPoint x="504" y="50" />
              <mxPoint x="284" y="50" />
            </Array>
          </mxGeometry>
        </mxCell>
        <mxCell id="ED_jTnRFuxciTTokr7V6-2" value="GitHub/Git&lt;div&gt;Version Control&lt;/div&gt;&lt;div&gt;2.46.0&lt;/div&gt;" style="rounded=0;whiteSpace=wrap;html=1;" vertex="1" parent="1">
          <mxGeometry x="444" y="110" width="120" height="60" as="geometry" />
        </mxCell>
        <mxCell id="ED_jTnRFuxciTTokr7V6-12" style="edgeStyle=orthogonalEdgeStyle;rounded=0;orthogonalLoop=1;jettySize=auto;html=1;entryX=0.5;entryY=1;entryDx=0;entryDy=0;" edge="1" parent="1" source="ED_jTnRFuxciTTokr7V6-3" target="ED_jTnRFuxciTTokr7V6-1">
          <mxGeometry relative="1" as="geometry" />
        </mxCell>
        <mxCell id="ED_jTnRFuxciTTokr7V6-3" value="React&lt;div&gt;18.3.1&lt;/div&gt;" style="rounded=0;whiteSpace=wrap;html=1;" vertex="1" parent="1">
          <mxGeometry x="224" y="250" width="120" height="60" as="geometry" />
        </mxCell>
        <mxCell id="ED_jTnRFuxciTTokr7V6-13" style="edgeStyle=orthogonalEdgeStyle;rounded=0;orthogonalLoop=1;jettySize=auto;html=1;entryX=0.5;entryY=1;entryDx=0;entryDy=0;exitX=0.5;exitY=0;exitDx=0;exitDy=0;" edge="1" parent="1" source="ED_jTnRFuxciTTokr7V6-4" target="ED_jTnRFuxciTTokr7V6-1">
          <mxGeometry relative="1" as="geometry" />
        </mxCell>
        <mxCell id="ED_jTnRFuxciTTokr7V6-4" value="Node.js&lt;div&gt;20.16.0&lt;/div&gt;" style="rounded=0;whiteSpace=wrap;html=1;" vertex="1" parent="1">
          <mxGeometry x="434" y="250" width="120" height="60" as="geometry" />
        </mxCell>
        <mxCell id="ED_jTnRFuxciTTokr7V6-5" value="Firebase&lt;div&gt;Latest&lt;/div&gt;" style="rounded=0;whiteSpace=wrap;html=1;" vertex="1" parent="1">
          <mxGeometry x="630" y="200" width="120" height="60" as="geometry" />
        </mxCell>
        <mxCell id="ED_jTnRFuxciTTokr7V6-9" style="edgeStyle=orthogonalEdgeStyle;rounded=0;orthogonalLoop=1;jettySize=auto;html=1;entryX=0;entryY=0.5;entryDx=0;entryDy=0;" edge="1" parent="1" source="ED_jTnRFuxciTTokr7V6-8" target="ED_jTnRFuxciTTokr7V6-1">
          <mxGeometry relative="1" as="geometry" />
        </mxCell>
        <mxCell id="ED_jTnRFuxciTTokr7V6-8" value="&lt;div&gt;Developer&lt;/div&gt;" style="rounded=0;whiteSpace=wrap;html=1;" vertex="1" parent="1">
          <mxGeometry x="-70" y="110" width="120" height="60" as="geometry" />
        </mxCell>
        <mxCell id="ED_jTnRFuxciTTokr7V6-20" value="Pull" style="text;html=1;align=center;verticalAlign=middle;whiteSpace=wrap;rounded=0;" vertex="1" parent="1">
          <mxGeometry x="364" y="20" width="60" height="30" as="geometry" />
        </mxCell>
        <mxCell id="ED_jTnRFuxciTTokr7V6-21" value="Push" style="text;html=1;align=center;verticalAlign=middle;whiteSpace=wrap;rounded=0;" vertex="1" parent="1">
          <mxGeometry x="364" y="140" width="60" height="30" as="geometry" />
        </mxCell>
        <mxCell id="ED_jTnRFuxciTTokr7V6-23" value="Developers write their HTML/CSS and JavaScript code in VSCode 1.92" style="text;html=1;align=center;verticalAlign=middle;whiteSpace=wrap;rounded=0;" vertex="1" parent="1">
          <mxGeometry x="150" y="65" width="120" height="30" as="geometry" />
        </mxCell>
        <mxCell id="ED_jTnRFuxciTTokr7V6-24" value="Developers will version control the software using Git 2.46 or GitHub Desktop" style="text;html=1;align=center;verticalAlign=middle;whiteSpace=wrap;rounded=0;" vertex="1" parent="1">
          <mxGeometry x="507" y="60" width="120" height="30" as="geometry" />
        </mxCell>
        <mxCell id="ED_jTnRFuxciTTokr7V6-25" value="We will use firebase as the database and authentication for user accounts" style="text;html=1;align=center;verticalAlign=middle;whiteSpace=wrap;rounded=0;" vertex="1" parent="1">
          <mxGeometry x="750" y="215" width="120" height="30" as="geometry" />
        </mxCell>
        <mxCell id="ED_jTnRFuxciTTokr7V6-26" value="Front end development will be done in React (more stuff)" style="text;html=1;align=center;verticalAlign=middle;whiteSpace=wrap;rounded=0;" vertex="1" parent="1">
          <mxGeometry x="224" y="333" width="120" height="30" as="geometry" />
        </mxCell>
      </root>
    </mxGraphModel>
  </diagram>
</mxfile>
